<svg xmlns="http://www.w3.org/2000/svg" viewBox="0 0 100 100">
  <defs>
    <linearGradient id="favicon-bg" x1="16" y1="10" x2="92" y2="84" gradientUnits="userSpaceOnUse">
      <stop stop-color="#1e3a8a" />
      <stop offset="1" stop-color="#1d4ed8" />
    </linearGradient>
    <linearGradient id="favicon-stroke" x1="18" y1="20" x2="86" y2="82" gradientUnits="userSpaceOnUse">
      <stop stop-color="#38bdf8" />
      <stop offset="1" stop-color="#1d4ed8" />
    </linearGradient>
  </defs>
  <rect width="100" height="100" rx="18" fill="url(#favicon-bg)" />
  <path
    d="M36 24c0-4.418 3.582-8 8-8h12c4.418 0 8 3.582 8 8v24c0 4.418 3.582 8 8 8h12c4.418 0 8-3.582 8-8V34c0-4.418-3.582-8-8-8H64"
    fill="none"
    stroke="url(#favicon-stroke)"
    stroke-width="8"
    stroke-linecap="round"
    stroke-linejoin="round"
  />
  <path
    d="M28 52h12c4.418 0 8-3.582 8-8V24c0-4.418-3.582-8-8-8H28c-4.418 0-8 3.582-8 8v36c0 4.418 3.582 8 8 8h12"
    fill="none"
    stroke="url(#favicon-stroke)"
    stroke-width="8"
    stroke-linecap="round"
    stroke-linejoin="round"
  />
</svg>
